<?xml version="1.0" encoding="utf-8"?>
<!-- Generator: Adobe Illustrator 27.0.1, SVG Export Plug-In . SVG Version: 6.00 Build 0)  -->
<svg version="1.1" id="Layer_1" xmlns="http://www.w3.org/2000/svg" xmlns:xlink="http://www.w3.org/1999/xlink" x="0px" y="0px"
	 viewBox="0 0 120 120" style="enable-background:new 0 0 120 120;" xml:space="preserve">
<style type="text/css">
	.st0{fill:#009FDC;}
	.st1{fill:#FFFFFF;}
</style>
<g>
	<circle class="st0" cx="60" cy="60" r="57"/>
</g>
<g>
	<path class="st1" d="M53.56,35.01c2.03-1.05,4.4-1.56,6.55-1.56c4.76,0,9.52,1.85,13.09,4.63l4.89-6.08
		c-5.02-4.09-10.97-6.21-17.72-6.21c-7.83,0-14.8,3.25-18.09,9.23H53.56z"/>
	<path class="st1" d="M65.26,55.93c-7.01-2.94-14.09-5.21-16.01-10.6H40.4c1.09,10.04,9.56,13.6,17.46,16.81
		c7.27,2.91,14.15,5.55,14.15,12.96c0,7.4-7.27,10.71-13.49,10.71c-6.08,0-10.97-2.65-14.81-6.74l-5.42,5.68
		c5.29,5.82,12.69,8.73,19.96,8.73C69.1,93.48,81,86.6,81,75.23C81,63.73,73.2,59.24,65.26,55.93z"/>
</g>
</svg>
