<?xml version="1.0" encoding="utf-8"?>
<!-- Generator: Adobe Illustrator 27.0.1, SVG Export Plug-In . SVG Version: 6.00 Build 0)  -->
<svg version="1.1" id="Layer_1" xmlns="http://www.w3.org/2000/svg" xmlns:xlink="http://www.w3.org/1999/xlink" x="0px" y="0px"
	 viewBox="0 0 993.8 372.7" style="enable-background:new 0 0 993.8 372.7;" xml:space="preserve">
<style type="text/css">
	.st0{fill:#FFFFFF;}
</style>
<g>
	<g>
		<path class="st0" d="M930.6,119.7c-10-14.9-26.5-23.2-58.7-23.2c-34.2,0-51.6,9.8-61,27.4c-9.5-17.6-26.6-27.4-61.3-27.4
			c-31.7,0-48.5,8.3-58.5,23.2h45c4.6-0.7,9.1-1.1,13.6-1.2c5.8,0.1,11.8,0.8,17.7,1.9c17.6,4.7,30,17.7,31.4,37.9l0,115.4h24.2
			V158.8c1.2-20.5,13.6-33.7,31.4-38.4c5.9-1.1,11.9-1.8,17.7-1.9c4.5,0.1,9,0.5,13.6,1.2L930.6,119.7L930.6,119.7z"/>
		<path class="st0" d="M681.2,147.4c-1,6.4-1.4,13.3-1.4,20.7v105.6h21.6l1.8-20.2c0.2-1.3,0.7-21.2,0.7-21.2h0l0.1-72
			c0.2-4.6,0.8-8.9,1.7-12.8L681.2,147.4L681.2,147.4z"/>
		<path class="st0" d="M916,147.4c1.9,5.3,1.8,15.6,1.8,15.7v69.1l0,0c0,0,0.6,19.9,0.7,21.2l1.8,20.2h21.6V168.1
			c0-7.4-0.5-14.3-1.4-20.7H916z"/>
	</g>
	<g>
		<path class="st0" d="M402.6,119.7c4.8-1.9,10-2.9,14.7-2.9c12.8,0,25.5,5,35.1,12.4l13.1-16.3c-13.5-11-29.4-16.7-47.5-16.7
			c-20.4,0-38.7,8.2-47.8,23.4C370.3,119.7,402.6,119.7,402.6,119.7z"/>
		<path class="st0" d="M431.1,177.1c-19.3-8.1-38.9-14.3-43.3-29.7h-23.4c2.3,27.9,25.4,37.6,46.9,46.3
			c19.5,7.8,37.9,14.9,37.9,34.7s-19.5,28.7-36.1,28.7c-16.3,0-29.4-7.1-39.7-18.1l-14.5,15.2c14.2,15.6,34,23.4,53.5,23.4
			c29,0,60.9-18.4,60.9-48.9C473.3,198,452.4,185.9,431.1,177.1z"/>
	</g>
	<g>
		<path class="st0" d="M92.8,119.7c5.4-2.8,11.8-4.2,17.5-4.2c12.8,0,25.5,5,35.1,12.4l13.1-16.3c-13.5-11-29.4-16.6-47.5-16.6
			c-21,0-39.7,8.7-48.5,24.7H92.8z"/>
		<path class="st0" d="M124.2,175.8c-18.8-7.9-37.8-14-42.9-28.4H57.5c2.9,26.9,25.6,36.4,46.8,45c19.5,7.8,37.9,14.9,37.9,34.7
			s-19.5,28.7-36.1,28.7c-16.3,0-29.4-7.1-39.7-18.1L51.9,253c14.2,15.6,34,23.4,53.5,23.4c29.1,0,60.9-18.4,60.9-48.9
			C166.3,196.7,145.4,184.6,124.2,175.8z"/>
	</g>
	<path class="st0" d="M572.3,95.6c-32,0-48.5,8.3-58.5,23.4h43.8c5-0.8,10.1-1.3,15-1.4c5.8,0.1,11.8,0.8,17.7,1.9
		c17.8,4,28,19.1,28,42.5l0.1,31.4h-91.6v-31.1c0.1-6,0.7-11.1,1.6-15.5h-24.3c-0.9,6.3-1.4,13.1-1.4,20.5v105.6h21.6l1.8-20.2
		c0.2-1.3,0.7-21.2,0.7-21.2l0,0l0-17.5h91.6l0,17.5c0,0,0,0,0,0c0,0,0.6,19.9,0.7,21.2l1.8,20.2h21.6V167.1
		C642.5,122.5,627.9,95.6,572.3,95.6z"/>
	<path class="st0" d="M306.1,241.7c-14.4,18.7-46.5,15.6-46.5,15.6c-30.6-3.3-41.6-23.7-42.9-48.2c0-0.1-0.1-16.7-0.1-16.7l116.6,0
		c0,0,0,0.1,0-13c0-39.2,0.7-84.1-71-84.1c-28.8,0-46.8,6.6-58,23.5h43.5c3.8-0.8,7.9-1.2,13.3-1.2h4.4c44.5,0,44.2,36.3,44.2,41.4
		c0,0.7,0,13,0,13l-93,0c0,0,0.1-12.9,0.1-13c0-5.9,1-10.5,1.4-12.5h-24c-0.7,5-0.9,15-0.9,15.6c0,1.4-0.1,39-0.1,39
		c0,58.6,30.4,75.8,66.8,75.8c1.9,0,4.1-0.1,5.7-0.1c29.1,0,57.8-9.6,65.5-34.9L306.1,241.7z"/>
</g>
</svg>
