<svg xmlns:xlink="http://www.w3.org/1999/xlink" xmlns="http://www.w3.org/2000/svg" class="app-header__logo-img img-responsive" alt="Logo" id="Cyan" viewBox="0 0 912.67 189.33" width="912.67"  height="189.33" ><defs><style>.cls-1{fill:#009fdf}</style></defs><path class="cls-1" d="M898.72 26.67C888.47 11.41 871.63 3 838.74 3c-35 0-52.68 10-62.36 28-9.68-18-27.13-28-62.59-28-32.33 0-49.51 8.44-59.75 23.7h46a104.42 104.42 0 0113.89-1.23A108.12 108.12 0 01732 27.38c18 4.75 30.59 18.09 32 38.68V183.9h24.68V66.63c1.26-20.92 13.91-34.46 32.09-39.25a108.12 108.12 0 0118.06-1.94 104.41 104.41 0 0113.89 1.23zM644 54.93a141.83 141.83 0 00-1.45 21.14V183.9h22.05l1.81-20.63c.16-1.37.73-21.7.73-21.7l.09-73.57A63.76 63.76 0 01669 54.93zM883.77 54.93c2 5.38 1.85 16 1.85 16.07v70.56s.57 20.33.73 21.7l1.81 20.63h22.08V76.06a141.83 141.83 0 00-1.45-21.14zM359.36 26.67a40.69 40.69 0 0115.06-3c13 0 26.05 5.07 35.83 12.67l13.39-16.65c-13.75-11.22-30-17-48.49-17-20.84 0-39.5 8.42-48.78 23.94zM388.53 85.23c-19.74-8.23-39.74-14.6-44.27-30.3h-23.88c2.38 28.46 25.93 38.39 47.89 47.31 19.9 8 38.72 15.2 38.72 35.46s-19.9 29.3-36.91 29.3c-16.65 0-30-7.24-40.53-18.45l-14.84 15.56A73.83 73.83 0 00369.35 188c29.67 0 62.24-18.82 62.24-49.94 0-31.48-21.34-43.78-43.06-52.83zM43 28a40 40 0 0117.92-4.27c13 0 26.05 5.07 35.83 12.67l13.39-16.65c-13.75-11.22-30-17-48.49-17-21.42 0-40.51 8.9-49.51 25.25zM75 85.23c-19.17-8-38.56-14.26-43.81-29H6.93c3 27.47 26.17 37.22 47.79 46 19.9 8 38.72 15.2 38.72 35.46S73.54 167 56.53 167c-16.65 0-30-7.24-40.53-18.45L1.16 164.12A73.83 73.83 0 0055.8 188c29.68 0 62.2-18.81 62.2-49.93 0-31.49-21.3-43.79-43-52.84zM532.76 2C500 2 483.2 10.54 473 26h44.74A105.78 105.78 0 01533 24.49a108.18 108.18 0 0118.06 1.94c18.22 4.11 28.66 19.5 28.66 43.38l.07 32h-93.56V70a87.59 87.59 0 011.59-15.83H463a142.23 142.23 0 00-1.41 20.9v107.88h22.11l1.81-20.63c.16-1.37.73-21.7.73-21.7v-17.86h93.56v17.85s.57 20.33.73 21.7l1.81 20.63h22.08V75.11C604.42 29.52 589.51 2 532.76 2zM260.78 151.26c-14.66 19.12-47.46 15.94-47.46 15.94-31.32-3.33-42.54-24.2-43.78-49.2l-.07-17.07h119V87.66c0-40 .75-85.86-72.47-85.86-29.39 0-47.83 6.77-59.23 24h44.47a65.51 65.51 0 0113.55-1.27h4.47c45.4 0 45.13 37.09 45.13 42.25 0 .67.05 13.29.05 13.29h-95l.05-13.26A58.83 58.83 0 01171 54h-24.56c-.67 5.12-.92 15.35-.94 15.92 0 1.37-.08 39.81-.08 39.81 0 59.89 31 77.41 68.18 77.41 1.93 0 4.2-.09 5.78-.09 29.68 0 59-9.81 66.85-35.59z" fill="#009FDF"></path></svg>