<?xml version="1.0" encoding="utf-8"?>
<!-- Generator: Adobe Illustrator 26.4.1, SVG Export Plug-In . SVG Version: 6.00 Build 0)  -->
<svg version="1.1" id="Layer_1" xmlns="http://www.w3.org/2000/svg" xmlns:xlink="http://www.w3.org/1999/xlink" x="0px" y="0px"
	 viewBox="0 0 993.78 372.67" style="enable-background:new 0 0 993.78 372.67;" xml:space="preserve">
<style type="text/css">
	.st0{fill:#FFFFFF;}
</style>
<g>
	<g>
		<path class="st0" d="M930.61,119.72c-10.03-14.94-26.52-23.21-58.72-23.21c-34.23,0-51.57,9.82-61.05,27.4
			c-9.48-17.58-26.56-27.4-61.27-27.4c-31.65,0-48.47,8.27-58.5,23.21h45.02c4.56-0.7,9.13-1.13,13.6-1.21
			c5.81,0.1,11.79,0.78,17.68,1.9c17.63,4.65,29.95,17.71,31.37,37.87l-0.01,115.37l24.16,0v-114.8
			c1.24-20.48,13.62-33.73,31.41-38.43c5.89-1.12,11.87-1.8,17.68-1.9c4.47,0.08,9.04,0.51,13.6,1.21H930.61z"/>
		<path class="st0" d="M681.21,147.39c-0.97,6.39-1.42,13.29-1.42,20.69v105.57h21.61l1.77-20.19c0.16-1.34,0.72-21.25,0.72-21.25
			l-0.01,0l0.09-72.04c0.17-4.63,0.75-8.88,1.72-12.78H681.21z"/>
		<path class="st0" d="M915.98,147.39c1.93,5.26,1.81,15.65,1.81,15.73v69.08l-0.01,0.01c0,0,0.56,19.9,0.72,21.25l1.77,20.19h21.61
			V168.08c0-7.4-0.45-14.31-1.42-20.69H915.98z"/>
	</g>
	<g>
		<path class="st0" d="M402.57,119.72c4.75-1.94,9.96-2.89,14.74-2.89c12.75,0,25.51,4.96,35.07,12.4l13.11-16.3
			c-13.46-10.98-29.4-16.65-47.47-16.65c-20.4,0-38.67,8.24-47.76,23.44H402.57z"/>
		<path class="st0" d="M431.13,177.06c-19.33-8.11-38.91-14.3-43.34-29.67h-23.38c2.33,27.86,25.39,37.59,46.89,46.32
			c19.49,7.79,37.91,14.88,37.91,34.72s-19.48,28.7-36.14,28.7c-16.3,0-29.4-7.09-39.68-18.07l-14.53,15.23
			c14.17,15.59,34.01,23.38,53.49,23.38c29.05,0,60.94-18.42,60.94-48.89C473.29,197.96,452.39,185.91,431.13,177.06z"/>
	</g>
	<g>
		<path class="st0" d="M92.8,119.72c5.43-2.81,11.8-4.18,17.54-4.18c12.75,0,25.51,4.96,35.07,12.4l13.11-16.3
			C145.06,100.67,129.12,95,111.05,95c-20.97,0-39.66,8.71-48.47,24.72H92.8z"/>
		<path class="st0" d="M124.16,175.77c-18.77-7.87-37.75-13.96-42.89-28.39H57.53c2.92,26.9,25.62,36.44,46.79,45.04
			c19.49,7.79,37.91,14.88,37.91,34.72s-19.48,28.7-36.14,28.7c-16.3,0-29.4-7.09-39.68-18.07L51.89,253
			c14.17,15.59,34.01,23.38,53.49,23.38c29.05,0,60.94-18.42,60.94-48.89C166.32,196.67,145.42,184.63,124.16,175.77z"/>
	</g>
	<path class="st0" d="M572.33,95.58c-32.04,0-48.52,8.35-58.52,23.44h43.81c5.01-0.83,10.06-1.35,14.98-1.44
		c5.81,0.11,11.79,0.78,17.68,1.9c17.83,4.02,28.05,19.09,28.05,42.47l0.07,31.36h-91.62l0-31.13c0.12-5.97,0.65-11.06,1.56-15.5
		h-24.27c-0.94,6.32-1.38,13.15-1.38,20.46v105.57h21.61l1.77-20.19c0.16-1.34,0.72-21.25,0.72-21.25c0,0,0,0,0,0l-0.01-17.47h91.61
		l0.01,17.47c0,0-0.01,0-0.01,0.01c0,0,0.56,19.9,0.72,21.25l1.77,20.19h21.61V167.15C642.49,122.51,627.9,95.58,572.33,95.58z"/>
	<path class="st0" d="M306.06,241.7c-14.35,18.72-46.46,15.6-46.46,15.6c-30.65-3.26-41.65-23.74-42.87-48.16
		c0-0.06-0.07-16.71-0.07-16.71l116.55-0.01c0,0,0,0.11,0-12.99c0-39.16,0.73-84.06-70.95-84.06c-28.78,0-46.83,6.63-57.99,23.46
		h43.53c3.75-0.78,7.95-1.24,13.26-1.24l4.38,0c44.45,0,44.18,36.31,44.18,41.37c0,0.66,0.05,13.01,0.05,13.01l-93.01,0.01
		c0,0,0.05-12.93,0.05-12.99c0-5.87,1.03-10.53,1.45-12.5h-24.04c-0.66,5.01-0.9,15.03-0.92,15.58c-0.04,1.35-0.08,38.97-0.08,38.97
		c0,58.64,30.38,75.79,66.75,75.79c1.89,0,4.11-0.08,5.66-0.08c29.06,0,57.8-9.6,65.45-34.85L306.06,241.7z"/>
</g>
</svg>
