<svg version="1.2" xmlns="http://www.w3.org/2000/svg" viewBox="0 0 1000 1000" width="1000" height="1000">
	<title>sesamlogo-svg-darkbg-svg</title>
	<style>
		.s0 { fill: #40363c } 
		.s1 { fill: #ffffff } 
	</style>
	<path id="Shape 1" class="s0" d="m500 997c-274.8 0-497-222.2-497-497 0-274.8 222.2-497 497-497 274.8 0 497 222.2 497 497 0 274.8-222.2 497-497 497z"/>
	<path id="Layer" class="s1" d="m888.6 433.7c-4.6-0.7-9.2-1.1-13.6-1.2-5.8 0.1-11.8 0.8-17.7 1.9-17.8 4.7-30.2 18-31.4 38.4v114.8h-24.2v-115.3c-1.4-20.2-13.7-33.2-31.3-37.9-5.9-1.1-11.9-1.8-17.7-1.9-4.5 0.1-9.1 0.5-13.6 1.2h-45c10-14.9 26.8-23.2 58.5-23.2 34.7 0 51.8 9.8 61.2 27.4 9.5-17.6 26.9-27.4 61.1-27.4 32.2 0 48.7 8.3 58.7 23.2zm-179.9 27.7q-1.5 5.8-1.7 12.8l-0.1 72c0 0-0.6 19.9-0.7 21.3l-1.8 20.1h-21.6v-105.5c0-7.4 0.4-14.3 1.4-20.7zm234.8 0c0.9 6.4 1.4 13.3 1.4 20.7v105.5h-21.6l-1.8-20.1c-0.2-1.4-0.7-21.3-0.7-21.3v-69.1c0-0.1 0.1-10.5-1.8-15.7zm-570.2-27.7c9-15.2 27.3-23.4 47.7-23.4 18.1 0 34 5.6 47.5 16.6l-13.1 16.3c-9.6-7.4-22.3-12.4-35.1-12.4-4.8 0-10 1-14.7 2.9zm103 109.1c0 30.4-31.9 48.9-61 48.9-19.4 0-39.3-7.8-53.4-23.4l14.5-15.2c10.3 10.9 23.4 18 39.7 18 16.6 0 36.1-8.8 36.1-28.7 0-19.8-18.4-26.9-37.9-34.7-21.5-8.7-44.6-18.5-46.9-46.3h23.4c4.4 15.4 24 21.5 43.3 29.7 21.3 8.8 42.2 20.9 42.2 51.7zm-410.7-109.1c8.8-16 27.5-24.7 48.4-24.7 18.1 0 34.1 5.7 47.5 16.6l-13.1 16.3c-9.6-7.4-22.3-12.4-35.1-12.4-5.7 0-12.1 1.4-17.5 4.2zm103.7 107.8c0 30.5-31.9 48.9-60.9 48.9-19.5 0-39.3-7.8-53.5-23.4l14.5-15.2c10.3 10.9 23.4 18 39.7 18 16.6 0 36.1-8.8 36.1-28.7 0-19.8-18.4-26.9-37.9-34.7-21.2-8.6-43.9-18.1-46.8-45h23.8c5.1 14.4 24.1 20.5 42.9 28.4 21.2 8.8 42.1 20.9 42.1 51.7zm476.2-60.3v105.5h-21.6l-1.8-20.2c-0.1-1.3-0.7-21.2-0.7-21.2v-17.5h-91.6v17.5c0 0-0.6 19.9-0.7 21.2l-1.8 20.2h-21.6v-105.6c0-7.3 0.4-14.1 1.4-20.4h24.2c-0.9 4.4-1.4 9.5-1.5 15.5v31.1h91.6l-0.1-31.4c0-23.3-10.2-38.4-28-42.4-5.9-1.1-11.9-1.8-17.7-1.9-4.9 0.1-10 0.6-15 1.4h-43.8c10-15.1 26.5-23.4 58.5-23.4 55.6 0 70.2 26.9 70.2 71.6zm-311.5 74.7c-7.7 25.2-36.4 34.8-65.5 34.8-1.5 0-3.7 0.1-5.6 0.1-36.4 0-66.8-17.1-66.8-75.8 0 0 0.1-37.6 0.1-38.9 0-0.6 0.3-10.6 0.9-15.6h24.1c-0.5 2-1.5 6.6-1.5 12.5v13h93c0 0-0.1-12.4-0.1-13 0-5.1 0.3-41.4-44.2-41.4h-4.3c-5.3 0-9.5 0.5-13.3 1.2h-43.5c11.1-16.8 29.2-23.4 58-23.4 71.6 0 70.9 44.9 70.9 84 0 13.1 0 13 0 13h-116.5v16.7c1.3 24.5 12.3 44.9 42.9 48.2 0 0 32.1 3.1 46.5-15.6z"/>
</svg>